{
    "asset" : {
        "generator" : "Khronos glTF Blender I/O v1.2.75",
        "version" : "2.0"
    },
    "scene" : 0,
    "scenes" : [
        {
            "name" : "Scene",
            "nodes" : [
                0,
                1,
                2,
                3,
                4
            ]
        }
    ],
    "nodes" : [
        {
            "mesh" : 0,
            "name" : "Cube.006",
            "rotation" : [
                0,
                0.38268327713012695,
                0,
                -0.9238796234130859
            ],
            "scale" : [
                0.03834892064332962,
                1.1504676342010498,
                1.875
            ]
        },
        {
            "name" : "Text",
            "rotation" : [
                -0.653281569480896,
                0.2705979347229004,
                -0.2705979347229004,
                -0.6532815098762512
            ],
            "scale" : [
                1.2796833515167236,
                1.2796833515167236,
                1.2796831130981445
            ],
            "translation" : [
                -1.5876901149749756,
                0.5275043249130249,
                1.5816240310668945
            ]
        },
        {
            "name" : "Text.001",
            "rotation" : [
                -0.2705981135368347,
                0.6532814502716064,
                -0.6532814502716064,
                -0.2705981135368347
            ],
            "scale" : [
                1.957040548324585,
                1.957040548324585,
                1.957040548324585
            ],
            "translation" : [
                -1.5024096965789795,
                0.9314869046211243,
                -1.4410802125930786
            ]
        },
        {
            "name" : "Text.002",
            "rotation" : [
                0.6532815098762512,
                0.27059805393218994,
                -0.27059805393218994,
                0.6532814502716064
            ],
            "scale" : [
                0.8461167216300964,
                0.8461167216300964,
                0.8461166620254517
            ],
            "translation" : [
                1.4926828145980835,
                0.8403826951980591,
                1.541914701461792
            ]
        },
        {
            "name" : "Text.003",
            "rotation" : [
                0.27059805393218994,
                0.6532814502716064,
                -0.6532815098762512,
                0.27059802412986755
            ],
            "scale" : [
                0.5361073613166809,
                0.5361073613166809,
                0.5361072421073914
            ],
            "translation" : [
                1.5825607776641846,
                0.8392043709754944,
                -1.651399850845337
            ]
        }
    ],
    "materials" : [
        {
            "doubleSided" : true,
            "emissiveFactor" : [
                0,
                0,
                0
            ],
            "name" : "Material.001",
            "pbrMetallicRoughness" : {
                "baseColorFactor" : [
                    0.800000011920929,
                    0.800000011920929,
                    0.800000011920929,
                    1
                ],
                "metallicFactor" : 0,
                "roughnessFactor" : 0.5
            }
        },
        {
            "doubleSided" : true,
            "emissiveFactor" : [
                0,
                0,
                0
            ],
            "name" : "Material.002",
            "pbrMetallicRoughness" : {
                "baseColorFactor" : [
                    0.023650672286748886,
                    0.023450074717402458,
                    0.022853778675198555,
                    1
                ],
                "metallicFactor" : 0,
                "roughnessFactor" : 0.8416666984558105
            }
        },
        {
            "doubleSided" : true,
            "emissiveFactor" : [
                0,
                0,
                0
            ],
            "name" : "Material",
            "pbrMetallicRoughness" : {
                "baseColorFactor" : [
                    0.800000011920929,
                    0.800000011920929,
                    0.800000011920929,
                    1
                ],
                "metallicFactor" : 0,
                "roughnessFactor" : 0.4000000059604645
            }
        },
        {
            "doubleSided" : true,
            "emissiveFactor" : [
                0,
                0,
                0
            ],
            "name" : "Material.006",
            "pbrMetallicRoughness" : {
                "baseColorTexture" : {
                    "index" : 0,
                    "texCoord" : 0
                },
                "metallicFactor" : 0,
                "roughnessFactor" : 0.42500001192092896
            }
        },
        {
            "doubleSided" : true,
            "emissiveFactor" : [
                0,
                0,
                0
            ],
            "name" : "Material.004",
            "pbrMetallicRoughness" : {
                "baseColorFactor" : [
                    0.001953533850610256,
                    0.05299054831266403,
                    0.08714006096124649,
                    1
                ],
                "metallicFactor" : 0,
                "roughnessFactor" : 0.5
            }
        },
        {
            "doubleSided" : true,
            "name" : "Material.005",
            "pbrMetallicRoughness" : {}
        },
        {
            "doubleSided" : true,
            "emissiveFactor" : [
                0,
                0,
                0
            ],
            "name" : "Material.011",
            "pbrMetallicRoughness" : {
                "baseColorFactor" : [
                    0.8000000715255737,
                    0.001864246092736721,
                    0.04040595889091492,
                    1
                ],
                "metallicFactor" : 0,
                "roughnessFactor" : 0.5
            }
        },
        {
            "doubleSided" : true,
            "emissiveFactor" : [
                0,
                0,
                0
            ],
            "name" : "Material.010",
            "pbrMetallicRoughness" : {
                "baseColorFactor" : [
                    0.8000000715255737,
                    0,
                    0.0017395614413544536,
                    1
                ],
                "metallicFactor" : 0,
                "roughnessFactor" : 0.5
            }
        }
    ],
    "meshes" : [
        {
            "name" : "Cube.013",
            "primitives" : [
                {
                    "attributes" : {
                        "POSITION" : 0,
                        "NORMAL" : 1,
                        "TEXCOORD_0" : 2,
                        "COLOR_0" : 3
                    },
                    "indices" : 4,
                    "material" : 0
                },
                {
                    "attributes" : {
                        "POSITION" : 5,
                        "NORMAL" : 6,
                        "TEXCOORD_0" : 7,
                        "COLOR_0" : 8
                    },
                    "indices" : 9,
                    "material" : 1
                },
                {
                    "attributes" : {
                        "POSITION" : 10,
                        "NORMAL" : 11,
                        "TEXCOORD_0" : 12,
                        "COLOR_0" : 13
                    },
                    "indices" : 14,
                    "material" : 2
                },
                {
                    "attributes" : {
                        "POSITION" : 15,
                        "NORMAL" : 16,
                        "TEXCOORD_0" : 17,
                        "COLOR_0" : 18
                    },
                    "indices" : 19,
                    "material" : 3
                },
                {
                    "attributes" : {
                        "POSITION" : 20,
                        "NORMAL" : 21,
                        "TEXCOORD_0" : 22,
                        "COLOR_0" : 23
                    },
                    "indices" : 24,
                    "material" : 4
                },
                {
                    "attributes" : {
                        "POSITION" : 25,
                        "NORMAL" : 26,
                        "TEXCOORD_0" : 27,
                        "COLOR_0" : 28
                    },
                    "indices" : 29,
                    "material" : 5
                },
                {
                    "attributes" : {
                        "POSITION" : 30,
                        "NORMAL" : 31,
                        "TEXCOORD_0" : 32,
                        "COLOR_0" : 33
                    },
                    "indices" : 34,
                    "material" : 6
                },
                {
                    "attributes" : {
                        "POSITION" : 35,
                        "NORMAL" : 36,
                        "TEXCOORD_0" : 37,
                        "COLOR_0" : 38
                    },
                    "indices" : 39,
                    "material" : 7
                }
            ]
        }
    ],
    "textures" : [
        {
            "source" : 0
        }
    ],
    "images" : [
        {
            "mimeType" : "image/jpeg",
            "name" : "pf-misctexture01-tong-020_1_1",
            "uri" : "text/pf-misctexture01-tong-020_1_1.jpg"
        }
    ],
    "accessors" : [
        {
            "bufferView" : 0,
            "componentType" : 5126,
            "count" : 64,
            "max" : [
                56.3162956237793,
                1.6674537658691406,
                1.15182363986969
            ],
            "min" : [
                -56.316314697265625,
                -0.2760286331176758,
                -1.151823878288269
            ],
            "type" : "VEC3"
        },
        {
            "bufferView" : 1,
            "componentType" : 5126,
            "count" : 64,
            "type" : "VEC3"
        },
        {
            "bufferView" : 2,
            "componentType" : 5126,
            "count" : 64,
            "type" : "VEC2"
        },
        {
            "bufferView" : 3,
            "componentType" : 5126,
            "count" : 64,
            "type" : "VEC4"
        },
        {
            "bufferView" : 4,
            "componentType" : 5123,
            "count" : 96,
            "type" : "SCALAR"
        },
        {
            "bufferView" : 5,
            "componentType" : 5126,
            "count" : 750,
            "max" : [
                68.42322540283203,
                1.7085970640182495,
                1.3994431495666504
            ],
            "min" : [
                -68.42328643798828,
                -0.603107213973999,
                -1.3994454145431519
            ],
            "type" : "VEC3"
        },
        {
            "bufferView" : 6,
            "componentType" : 5126,
            "count" : 750,
            "type" : "VEC3"
        },
        {
            "bufferView" : 7,
            "componentType" : 5126,
            "count" : 750,
            "type" : "VEC2"
        },
        {
            "bufferView" : 8,
            "componentType" : 5126,
            "count" : 750,
            "type" : "VEC4"
        },
        {
            "bufferView" : 9,
            "componentType" : 5123,
            "count" : 1200,
            "type" : "SCALAR"
        },
        {
            "bufferView" : 10,
            "componentType" : 5126,
            "count" : 1603,
            "max" : [
                260.7635498046875,
                2.26401424407959,
                5.3333330154418945
            ],
            "min" : [
                -260.7635498046875,
                -0.7552509903907776,
                -5.3333330154418945
            ],
            "type" : "VEC3"
        },
        {
            "bufferView" : 11,
            "componentType" : 5126,
            "count" : 1603,
            "type" : "VEC3"
        },
        {
            "bufferView" : 12,
            "componentType" : 5126,
            "count" : 1603,
            "type" : "VEC2"
        },
        {
            "bufferView" : 13,
            "componentType" : 5126,
            "count" : 1603,
            "type" : "VEC4"
        },
        {
            "bufferView" : 14,
            "componentType" : 5123,
            "count" : 3060,
            "type" : "SCALAR"
        },
        {
            "bufferView" : 15,
            "componentType" : 5126,
            "count" : 128,
            "max" : [
                254.31655883789062,
                2.240534782409668,
                5.201474666595459
            ],
            "min" : [
                -254.31655883789062,
                0.28516942262649536,
                -5.201475143432617
            ],
            "type" : "VEC3"
        },
        {
            "bufferView" : 16,
            "componentType" : 5126,
            "count" : 128,
            "type" : "VEC3"
        },
        {
            "bufferView" : 17,
            "componentType" : 5126,
            "count" : 128,
            "type" : "VEC2"
        },
        {
            "bufferView" : 18,
            "componentType" : 5126,
            "count" : 128,
            "type" : "VEC4"
        },
        {
            "bufferView" : 19,
            "componentType" : 5123,
            "count" : 192,
            "type" : "SCALAR"
        },
        {
            "bufferView" : 20,
            "componentType" : 5126,
            "count" : 192,
            "max" : [
                260.75067138671875,
                2.398589611053467,
                5.333069801330566
            ],
            "min" : [
                -260.75067138671875,
                2.2254815101623535,
                -5.333069801330566
            ],
            "type" : "VEC3"
        },
        {
            "bufferView" : 21,
            "componentType" : 5126,
            "count" : 192,
            "type" : "VEC3"
        },
        {
            "bufferView" : 22,
            "componentType" : 5126,
            "count" : 192,
            "type" : "VEC2"
        },
        {
            "bufferView" : 23,
            "componentType" : 5126,
            "count" : 192,
            "type" : "VEC4"
        },
        {
            "bufferView" : 24,
            "componentType" : 5123,
            "count" : 372,
            "type" : "SCALAR"
        },
        {
            "bufferView" : 25,
            "componentType" : 5126,
            "count" : 216,
            "max" : [
                536.9612426757812,
                -0.6866649389266968,
                10.982337951660156
            ],
            "min" : [
                -536.9612426757812,
                -0.9039678573608398,
                -10.982337951660156
            ],
            "type" : "VEC3"
        },
        {
            "bufferView" : 26,
            "componentType" : 5126,
            "count" : 216,
            "type" : "VEC3"
        },
        {
            "bufferView" : 27,
            "componentType" : 5126,
            "count" : 216,
            "type" : "VEC2"
        },
        {
            "bufferView" : 28,
            "componentType" : 5126,
            "count" : 216,
            "type" : "VEC4"
        },
        {
            "bufferView" : 29,
            "componentType" : 5123,
            "count" : 324,
            "type" : "SCALAR"
        },
        {
            "bufferView" : 30,
            "componentType" : 5126,
            "count" : 2523,
            "max" : [
                34.742671966552734,
                6.268368244171143,
                0.9674175977706909
            ],
            "min" : [
                -56.488197326660156,
                5.437220573425293,
                -0.898505449295044
            ],
            "type" : "VEC3"
        },
        {
            "bufferView" : 31,
            "componentType" : 5126,
            "count" : 2523,
            "type" : "VEC3"
        },
        {
            "bufferView" : 32,
            "componentType" : 5126,
            "count" : 2523,
            "type" : "VEC2"
        },
        {
            "bufferView" : 33,
            "componentType" : 5126,
            "count" : 2523,
            "type" : "VEC4"
        },
        {
            "bufferView" : 34,
            "componentType" : 5123,
            "count" : 3222,
            "type" : "SCALAR"
        },
        {
            "bufferView" : 35,
            "componentType" : 5126,
            "count" : 6339,
            "max" : [
                139.48394775390625,
                4.83872127532959,
                3.109666347503662
            ],
            "min" : [
                -161.32460021972656,
                2.3393075466156006,
                -3.0426998138427734
            ],
            "type" : "VEC3"
        },
        {
            "bufferView" : 36,
            "componentType" : 5126,
            "count" : 6339,
            "type" : "VEC3"
        },
        {
            "bufferView" : 37,
            "componentType" : 5126,
            "count" : 6339,
            "type" : "VEC2"
        },
        {
            "bufferView" : 38,
            "componentType" : 5126,
            "count" : 6339,
            "type" : "VEC4"
        },
        {
            "bufferView" : 39,
            "componentType" : 5123,
            "count" : 7929,
            "type" : "SCALAR"
        }
    ],
    "bufferViews" : [
        {
            "buffer" : 0,
            "byteLength" : 768,
            "byteOffset" : 0
        },
        {
            "buffer" : 0,
            "byteLength" : 768,
            "byteOffset" : 768
        },
        {
            "buffer" : 0,
            "byteLength" : 512,
            "byteOffset" : 1536
        },
        {
            "buffer" : 0,
            "byteLength" : 1024,
            "byteOffset" : 2048
        },
        {
            "buffer" : 0,
            "byteLength" : 192,
            "byteOffset" : 3072
        },
        {
            "buffer" : 0,
            "byteLength" : 9000,
            "byteOffset" : 3264
        },
        {
            "buffer" : 0,
            "byteLength" : 9000,
            "byteOffset" : 12264
        },
        {
            "buffer" : 0,
            "byteLength" : 6000,
            "byteOffset" : 21264
        },
        {
            "buffer" : 0,
            "byteLength" : 12000,
            "byteOffset" : 27264
        },
        {
            "buffer" : 0,
            "byteLength" : 2400,
            "byteOffset" : 39264
        },
        {
            "buffer" : 0,
            "byteLength" : 19236,
            "byteOffset" : 41664
        },
        {
            "buffer" : 0,
            "byteLength" : 19236,
            "byteOffset" : 60900
        },
        {
            "buffer" : 0,
            "byteLength" : 12824,
            "byteOffset" : 80136
        },
        {
            "buffer" : 0,
            "byteLength" : 25648,
            "byteOffset" : 92960
        },
        {
            "buffer" : 0,
            "byteLength" : 6120,
            "byteOffset" : 118608
        },
        {
            "buffer" : 0,
            "byteLength" : 1536,
            "byteOffset" : 124728
        },
        {
            "buffer" : 0,
            "byteLength" : 1536,
            "byteOffset" : 126264
        },
        {
            "buffer" : 0,
            "byteLength" : 1024,
            "byteOffset" : 127800
        },
        {
            "buffer" : 0,
            "byteLength" : 2048,
            "byteOffset" : 128824
        },
        {
            "buffer" : 0,
            "byteLength" : 384,
            "byteOffset" : 130872
        },
        {
            "buffer" : 0,
            "byteLength" : 2304,
            "byteOffset" : 131256
        },
        {
            "buffer" : 0,
            "byteLength" : 2304,
            "byteOffset" : 133560
        },
        {
            "buffer" : 0,
            "byteLength" : 1536,
            "byteOffset" : 135864
        },
        {
            "buffer" : 0,
            "byteLength" : 3072,
            "byteOffset" : 137400
        },
        {
            "buffer" : 0,
            "byteLength" : 744,
            "byteOffset" : 140472
        },
        {
            "buffer" : 0,
            "byteLength" : 2592,
            "byteOffset" : 141216
        },
        {
            "buffer" : 0,
            "byteLength" : 2592,
            "byteOffset" : 143808
        },
        {
            "buffer" : 0,
            "byteLength" : 1728,
            "byteOffset" : 146400
        },
        {
            "buffer" : 0,
            "byteLength" : 3456,
            "byteOffset" : 148128
        },
        {
            "buffer" : 0,
            "byteLength" : 648,
            "byteOffset" : 151584
        },
        {
            "buffer" : 0,
            "byteLength" : 30276,
            "byteOffset" : 152232
        },
        {
            "buffer" : 0,
            "byteLength" : 30276,
            "byteOffset" : 182508
        },
        {
            "buffer" : 0,
            "byteLength" : 20184,
            "byteOffset" : 212784
        },
        {
            "buffer" : 0,
            "byteLength" : 40368,
            "byteOffset" : 232968
        },
        {
            "buffer" : 0,
            "byteLength" : 6444,
            "byteOffset" : 273336
        },
        {
            "buffer" : 0,
            "byteLength" : 76068,
            "byteOffset" : 279780
        },
        {
            "buffer" : 0,
            "byteLength" : 76068,
            "byteOffset" : 355848
        },
        {
            "buffer" : 0,
            "byteLength" : 50712,
            "byteOffset" : 431916
        },
        {
            "buffer" : 0,
            "byteLength" : 101424,
            "byteOffset" : 482628
        },
        {
            "buffer" : 0,
            "byteLength" : 15858,
            "byteOffset" : 584052
        }
    ],
    "buffers" : [
        {
            "byteLength" : 599912,
            "uri" : "auditorioFESTILAB.bin"
        }
    ]
}
